<svg width="39" height="26" viewBox="0 0 39 26" fill="none" xmlns="http://www.w3.org/2000/svg">
<g clip-path="url(#clip0)">
<path d="M36.4 25.9998H2.6C1.91044 25.9998 1.24912 25.7259 0.761522 25.2383C0.273928 24.7507 0 24.0893 0 23.3998L0 12.4625H1.87308L2.29558 11.4398H3.24133L3.66275 12.4581H7.34825V11.6835L7.67758 12.4635H9.59075L9.92008 11.6705V12.4614H19.0775V10.7887H19.2508C19.3743 10.793 19.4101 10.8039 19.4101 11.0097V12.4635H24.1475V12.0746C24.6318 12.3205 25.2027 12.4646 25.8082 12.4646L25.9112 12.4635H25.9057H27.8991L28.3259 11.4452H29.2717L29.6887 12.4635H33.5302V11.495L34.1109 12.4635H37.1833V6.06754H34.1423V6.82262L33.7166 6.06754H30.5901V6.82262L30.199 6.06754H25.9772C25.3376 6.03521 24.7003 6.16685 24.1258 6.44995L24.1486 6.4402V6.06754H21.2366V6.4402C20.8841 6.16239 20.4389 6.02949 19.9918 6.06862H19.9983H9.35675L8.64283 7.7207L7.90942 6.06862H4.55758V6.8237L4.18817 6.06862H1.32817L0.00325 9.10195V2.60195C0.00325 1.91239 0.277178 1.25107 0.764772 0.763475C1.25237 0.275881 1.91369 0.00195313 2.60325 0.00195312H36.4032C37.0928 0.00195313 37.7541 0.275881 38.2417 0.763475C38.7293 1.25107 39.0032 1.91239 39.0032 2.60195V13.9553H36.9742C36.9417 13.9531 36.9027 13.9531 36.8647 13.9531C36.3946 13.9531 35.958 14.094 35.594 14.3355L35.6027 14.3301V13.9553H32.6018C32.133 13.9294 31.6692 14.0626 31.2856 14.3334L31.2921 14.329V13.9542H25.9339V14.329C25.4953 14.0817 24.9999 13.9525 24.4963 13.9542H24.4541H24.4562H20.9213V14.329C20.4595 14.0332 19.9115 13.9015 19.3657 13.9553L19.3754 13.9542H15.4202L14.5145 14.9335L13.6673 13.9542H7.75883V20.3545H13.5568L14.4896 19.36L15.3682 20.3545H18.9421V18.8563H19.4404C19.9196 18.875 20.3975 18.795 20.8444 18.6212L20.8206 18.6299V20.3567H23.7672V18.6895H23.9092C24.089 18.6895 24.1074 18.696 24.1074 18.878V20.3578H33.0622L33.1717 20.36C33.6852 20.36 34.164 20.2061 34.5627 19.9429L34.5529 19.9483V20.3578H37.3934L37.5288 20.36C38.0607 20.36 38.5667 20.2505 39.026 20.0523L39.0011 20.062V23.4009C39.0011 24.0904 38.7272 24.7517 38.2396 25.2393C37.752 25.7269 37.0906 26.0009 36.4011 26.0009L36.4 25.9998ZM22.8637 19.4575H21.7609V14.8696H24.2916C24.7486 14.8273 25.2089 14.9041 25.6273 15.0928L25.61 15.0863C25.9491 15.2726 26.1755 15.628 26.1755 16.0353L26.1733 16.1079V16.1046L26.1744 16.1458C26.1744 16.6723 25.857 17.1251 25.402 17.3223L25.3933 17.3255C25.6111 17.4035 25.7931 17.5368 25.9285 17.709L25.9307 17.7112C26.0836 17.9644 26.1477 18.2614 26.1127 18.5551L26.1137 18.5486V19.4564H25.0131V18.8823C25.0652 18.5697 25.0025 18.2488 24.8365 17.9788L24.8397 17.9842C24.7254 17.8974 24.5946 17.8347 24.4553 17.7999C24.3161 17.7651 24.1712 17.7588 24.0294 17.7816L24.0359 17.7805H22.8637V19.4564V19.4575ZM22.8637 15.8175V16.8478H24.1962C24.3844 16.8652 24.5738 16.8315 24.7444 16.7503L24.7379 16.7535C24.8076 16.7085 24.865 16.6468 24.9047 16.5739C24.9444 16.5011 24.9653 16.4194 24.9654 16.3365L24.9643 16.3115V16.3126C24.9697 16.2298 24.9515 16.1472 24.9118 16.0743C24.8721 16.0015 24.8126 15.9413 24.7401 15.901L24.7379 15.8999C24.5735 15.8263 24.3929 15.7965 24.2136 15.8132H24.2179L22.8637 15.8175ZM13.0867 19.4564H8.74575V14.8696H13.1549L14.5037 16.3733L15.8979 14.8696H19.4003C20.644 14.8696 21.2485 15.3647 21.2485 16.3809C21.2485 17.4155 20.6234 17.9181 19.3418 17.9181H17.9714V19.4554H15.8405L14.4907 17.9398L13.0877 19.4564H13.0867ZM16.8794 15.3615L15.1959 17.1706L16.8794 19.0383V15.3615ZM9.83883 17.5877V18.4999H12.5342L13.78 17.1544L12.5818 15.8175H9.83775V16.6517H12.2449V17.5866L9.83883 17.5877ZM17.9714 15.8186V16.9865H19.3873C19.8207 16.9865 20.0698 16.7655 20.0698 16.3798C20.0698 16.0115 19.838 15.8175 19.3992 15.8175L17.9714 15.8186ZM37.5126 19.4586H35.3957V18.4728H37.5039C37.6617 18.4945 37.8216 18.4533 37.9492 18.358L37.9481 18.359C37.9888 18.3213 38.0212 18.2755 38.0434 18.2246C38.0656 18.1737 38.077 18.1188 38.077 18.0633V18.06V18.046C38.0771 17.9911 38.0652 17.9369 38.0422 17.8872C38.0192 17.8374 37.9856 17.7932 37.9437 17.7578C37.8316 17.6768 37.6934 17.6404 37.5559 17.656H37.5581L37.3555 17.6495C36.3653 17.6235 35.2441 17.5931 35.2441 16.2357C35.2441 15.5749 35.6579 14.8696 36.816 14.8696H39.0011V15.8468H37.0023C36.8479 15.8295 36.692 15.8605 36.556 15.9356L36.5603 15.9335C36.5068 15.9687 36.4638 16.0176 36.4358 16.0752C36.4078 16.1328 36.3958 16.1968 36.4011 16.2606V16.2595V16.2715C36.4011 16.3444 36.4241 16.4156 36.4669 16.4747C36.5097 16.5339 36.5701 16.578 36.6394 16.6008L36.6416 16.6019C36.7789 16.6442 36.9227 16.6618 37.0662 16.6539H37.063L37.6577 16.669C38.1061 16.6243 38.554 16.7578 38.9047 17.0406L38.9014 17.0385C38.9339 17.0645 38.9621 17.0926 38.987 17.124L38.9881 17.1251L39.0011 18.8715C38.8189 19.0843 38.5871 19.2491 38.3262 19.3514C38.0653 19.4536 37.7833 19.49 37.505 19.4575L37.5126 19.4586ZM33.2345 19.4586H31.0982V18.4728H33.2237C33.3827 18.4936 33.5437 18.4525 33.6732 18.358L33.6711 18.359C33.7115 18.3211 33.7438 18.2753 33.7658 18.2245C33.7877 18.1736 33.799 18.1187 33.7989 18.0633V18.06V18.0525C33.7989 17.9967 33.787 17.9416 33.764 17.8908C33.741 17.84 33.7075 17.7946 33.6657 17.7578C33.5515 17.6767 33.4116 17.6404 33.2724 17.656H33.2746L33.0731 17.6495C32.0862 17.6235 30.966 17.5931 30.966 16.2357C30.966 15.5749 31.3777 14.8696 32.5336 14.8696H34.7306V15.8468H32.7199C32.5666 15.8297 32.4117 15.8607 32.2768 15.9356L32.2812 15.9335C32.2243 15.9726 32.179 16.0264 32.1501 16.0892C32.1213 16.152 32.1099 16.2213 32.1172 16.29C32.1246 16.3587 32.1503 16.4242 32.1917 16.4794C32.2332 16.5347 32.2888 16.5778 32.3527 16.604L32.3548 16.6051C32.494 16.6478 32.6396 16.6654 32.7849 16.6571H32.7817L33.3721 16.6723C33.8228 16.6289 34.2727 16.7625 34.6266 17.045L34.6233 17.0417C34.7424 17.1729 34.8329 17.3274 34.8892 17.4954C34.9455 17.6635 34.9664 17.8413 34.9505 18.0178V18.0124C34.9537 18.969 34.3742 19.4564 33.2312 19.4564L33.2345 19.4586ZM30.4417 19.4586H26.78V14.8685H30.4384V15.8165H27.8742V16.6506H30.3788V17.5855H27.8742V18.4977L30.4417 18.502V19.4554V19.4586ZM32.5758 11.5655H30.3431L29.9162 10.5428H27.6391L27.2252 11.5655H25.9426C25.3666 11.5958 24.7993 11.4143 24.3479 11.0552L24.3533 11.0585C24.1389 10.8218 23.9761 10.543 23.8754 10.2399C23.7747 9.93677 23.7382 9.61601 23.7683 9.29804L23.7672 9.3067C23.7394 8.98287 23.7776 8.65676 23.8797 8.34817C23.9817 8.03958 24.1454 7.75496 24.3609 7.51162L24.3587 7.51379C24.5862 7.31487 24.8522 7.1649 25.1402 7.0732C25.4281 6.9815 25.7319 6.95005 26.0325 6.98079L26.0238 6.9797H27.0855V7.95795H26.0455C25.8933 7.93835 25.7387 7.95255 25.5926 7.99956C25.4466 8.04656 25.3127 8.1252 25.2005 8.22987L25.2016 8.22879C24.97 8.52541 24.8575 8.89788 24.8863 9.27312V9.2677C24.8518 9.65323 24.9601 10.038 25.1907 10.3489L25.1875 10.3445C25.4029 10.5205 25.6785 10.6053 25.9556 10.5807H25.9512H26.4431L27.9933 6.9732H29.64L31.4957 11.3065V6.9732H33.1652L35.0913 10.1669V6.9732H36.218V11.5579H34.6537L32.5737 8.11504V11.5579L32.5758 11.5655ZM28.7852 7.75429L28.0302 9.58295H29.5436L28.7852 7.75429ZM18.1697 11.5633H17.0733V6.97645H19.5953C20.0557 6.92868 20.5204 7.00694 20.9397 7.20287L20.9235 7.19637C21.0921 7.28961 21.2327 7.42629 21.3306 7.59223C21.4285 7.75816 21.4802 7.94728 21.4803 8.13995L21.4782 8.21579V8.21254V8.24612C21.4782 8.49632 21.4061 8.74123 21.2705 8.95145C21.1348 9.16168 20.9413 9.32829 20.7133 9.43129L20.7047 9.43454C20.9224 9.51687 21.1055 9.64904 21.2452 9.81804L21.2474 9.8202C21.402 10.0743 21.4658 10.3734 21.4283 10.6685L21.4294 10.662V11.5622H20.3233L20.319 10.9837V10.897C20.3584 10.6142 20.2958 10.3265 20.1424 10.0856L20.1457 10.091C20.0309 10.0067 19.9006 9.94601 19.7623 9.91236C19.6239 9.8787 19.4803 9.87279 19.3397 9.89495L19.3462 9.89387H18.1707V11.5622L18.1697 11.5633ZM18.1697 7.93087V8.9492H19.5C19.6879 8.96959 19.8778 8.93576 20.0471 8.8517L20.0417 8.85387C20.1111 8.81168 20.1684 8.75236 20.2083 8.68159C20.2481 8.61082 20.2691 8.531 20.2692 8.44979L20.2681 8.41945V8.42054C20.2736 8.33822 20.2549 8.25609 20.2143 8.18428C20.1736 8.11248 20.1129 8.05413 20.0395 8.01645L20.0373 8.01537C19.8725 7.94464 19.6929 7.9149 19.5141 7.9287H19.5173L18.1697 7.93087ZM6.56067 11.5633H4.33333L3.91192 10.5406H1.62825L1.20358 11.5633H0.0119167L1.976 6.97645H3.60425L5.46867 11.3174V6.97645H7.25725L8.69158 10.0867L10.01 6.97645H11.8354V11.5611H10.7087L10.7066 7.97312L9.11733 11.5622H8.15533L6.56175 7.9677V11.5622L6.56067 11.5633ZM2.76467 7.75429L2.01825 9.58295H3.51542L2.76467 7.75429ZM23.2267 11.5622H22.1087V6.97645H23.2277V11.5611L23.2267 11.5622ZM16.3085 11.5622H12.6533V6.97645H16.315V7.92979H13.7497V8.75637H16.2532V9.69779H13.7475V10.6143H16.3128V11.5611L16.3085 11.5622Z" fill="white"/>
</g>
<defs>
<clipPath id="clip0">
<rect width="39" height="26" fill="white"/>
</clipPath>
</defs>
</svg>
