<svg xmlns="http://www.w3.org/2000/svg" viewBox="0 0 75.4 81.95"><defs><style>.cls-1{fill:#eeb2ca;}</style></defs><g id="Layer_2" data-name="Layer 2"><g id="Layer_1-2" data-name="Layer 1"><path class="cls-1" d="M67.81,21.26H53.87V16.17a16.17,16.17,0,1,0-32.34,0v5.09H7.59L0,82H75.4Zm-13.94,4H64.28l.56,4.43a23.39,23.39,0,0,0-5.54,3,15.22,15.22,0,0,0-5.43-3.08ZM9.53,56.34a39.94,39.94,0,0,1,3-5.85C16,44.78,21.88,38.78,27.77,37.33q-.87.83-1.56,1.62a32.92,32.92,0,0,0-7.49,25.57,6.9,6.9,0,0,1-1.71.12,3.21,3.21,0,0,1-2.53-1.35,3.93,3.93,0,0,1-.42-3.67,1.4,1.4,0,0,0,.08-1.2l-.06-.11a.47.47,0,0,0-.24-.22l-.11,0A.78.78,0,0,0,13.4,58c-.64,0-.94.63-1.17,1.12l0,.07,0,.11a5.63,5.63,0,0,0,5.27,7.52,11.68,11.68,0,0,0,1.77,0,11.75,11.75,0,0,0,.4,1.49,19.79,19.79,0,0,0,1.53,3.82,13.84,13.84,0,0,1-3.71.53H17a9.27,9.27,0,0,1-5.55-1.87A9.55,9.55,0,0,1,8,64.06,16.38,16.38,0,0,1,9.53,56.34Zm11.38,7.54a26.93,26.93,0,0,1,1.28-11.35,31.62,31.62,0,0,1,10.5-15.27,6.48,6.48,0,0,1,4.69,5.93c.22,3.89-2.1,8.43-6.86,13.48C26.94,60.27,23.71,62.7,20.91,63.88Zm11.8-4.66h0a27.82,27.82,0,0,0,5.16-7.4,17.29,17.29,0,0,0,1.76-8.62,8.77,8.77,0,0,0-4.93-7.41,26,26,0,0,1,14.42-4.44,15,15,0,0,1,5.73,1.08A11.71,11.71,0,0,1,57.54,34C51.68,38.59,46.68,45.78,42.65,51.6,36.8,59.86,30.5,68.17,23.26,71.34a18.61,18.61,0,0,1-1.83-4.55c0-.12-.06-.25-.1-.41C25,65.42,29,62.9,32.71,59.22ZM49.43,49.16l.16-.25c2.46-4.08,5.51-9.11,9.52-13.09.69,1.36,1.66,4.43-.42,8.62-2.4,4.84-4.89,7.1-7.83,7.1a5.55,5.55,0,0,1-.72,0,2.32,2.32,0,0,1-.6-.26A3.46,3.46,0,0,0,49.1,51a3.16,3.16,0,0,0-.64-.26C48.78,50.24,49.1,49.71,49.43,49.16Zm-23.9-33a12.17,12.17,0,1,1,24.34,0v5.09H25.53Zm-4,9.09v5.09h4V25.26H49.87v3.58l-.86,0a29.64,29.64,0,0,0-18.38,6,21.73,21.73,0,0,0-11,3.63A34.39,34.39,0,0,0,9.8,47.8a27.32,27.32,0,0,0-1.92,3.38h0l3.24-25.92ZM4.53,78,6,66.05H6a11,11,0,0,0,10.81,8.8,22.51,22.51,0,0,0,5.66-.52A18.72,18.72,0,0,0,25.78,78Zm20.24-4.21a28.45,28.45,0,0,0,10.41-6.38A82.91,82.91,0,0,0,47.26,52.64a2.4,2.4,0,0,0,1.28.68,9.1,9.1,0,0,0,2.56.27c4.15,0,8.55-3.07,10.68-7.45a11.39,11.39,0,0,0,.95-6.85,12.62,12.62,0,0,0-2-5,17.63,17.63,0,0,1,4.38-2.34l5.75,46H29.62A16,16,0,0,1,24.77,73.74Z"/></g></g></svg>