<svg width="34" height="34" viewBox="0 0 34 34" fill="none" xmlns="http://www.w3.org/2000/svg">
<g clip-path="url(#clip0)">
<path d="M28.5048 26.1077C28.5048 26.5094 28.2339 26.7984 27.844 26.7984C27.4423 26.7984 27.1831 26.4913 27.1831 26.1077C27.1831 25.7242 27.4423 25.4171 27.844 25.4171C28.2339 25.4171 28.5048 25.7242 28.5048 26.1077ZM10.1586 25.4171C9.73896 25.4171 9.49777 25.7242 9.49777 26.1077C9.49777 26.4913 9.74002 26.7984 10.1586 26.7984C10.5422 26.7984 10.8015 26.5094 10.8015 26.1077C10.7951 25.7242 10.5422 25.4171 10.1586 25.4171ZM17.0946 25.4001C16.7759 25.4001 16.5804 25.6062 16.5336 25.9133H17.661C17.6078 25.5765 17.4017 25.4001 17.0946 25.4001ZM23.458 25.4171C23.0563 25.4171 22.8151 25.7242 22.8151 26.1077C22.8151 26.4913 23.0574 26.7984 23.458 26.7984C23.8596 26.7984 24.1188 26.5094 24.1188 26.1077C24.1188 25.7242 23.8585 25.4171 23.458 25.4171ZM29.7086 26.9577C29.7086 26.9758 29.7267 26.9875 29.7267 27.0225C29.7267 27.0406 29.7086 27.0523 29.7086 27.0874C29.6906 27.1054 29.6906 27.1171 29.6789 27.1341C29.6608 27.1522 29.6491 27.1639 29.6141 27.1639C29.596 27.1819 29.5843 27.1819 29.5493 27.1819C29.5312 27.1819 29.5195 27.1819 29.4845 27.1639C29.4664 27.1639 29.4547 27.1458 29.4377 27.1341C29.4196 27.116 29.408 27.1044 29.408 27.0874C29.3899 27.0576 29.3899 27.0406 29.3899 27.0225C29.3899 26.9928 29.3899 26.9758 29.408 26.9577C29.408 26.928 29.426 26.911 29.4377 26.8929C29.4558 26.8749 29.4675 26.8749 29.4845 26.8632C29.5142 26.8451 29.5312 26.8451 29.5493 26.8451C29.579 26.8451 29.596 26.8451 29.6141 26.8632C29.6438 26.8802 29.6608 26.8802 29.6789 26.8929C29.697 26.9057 29.6906 26.928 29.7086 26.9577ZM29.579 27.0406C29.6088 27.0406 29.6088 27.0225 29.6258 27.0225C29.6438 27.0045 29.6438 26.9928 29.6438 26.9758C29.6438 26.9588 29.6438 26.946 29.6258 26.929C29.6088 26.929 29.596 26.911 29.561 26.911H29.4664V27.1171H29.5131V27.0342H29.5312L29.596 27.1171H29.6428L29.579 27.0406ZM34.0001 6.67036V27.4486C33.9998 28.2001 33.7012 28.9207 33.1698 29.452C32.6384 29.9834 31.9179 30.282 31.1664 30.2823H2.83271C2.08126 30.282 1.36066 29.9834 0.829302 29.452C0.297944 28.9207 -0.000694961 28.2001 -0.000976562 27.4486V6.67036C-0.000694961 5.9189 0.297944 5.19831 0.829302 4.66695C1.36066 4.13559 2.08126 3.83695 2.83271 3.83667H31.1664C31.9179 3.83695 32.6384 4.13559 33.1698 4.66695C33.7012 5.19831 33.9998 5.9189 34.0001 6.67036ZM3.77834 14.91C3.77834 19.4257 7.44396 23.0849 11.9532 23.0849C13.5591 23.0803 15.1287 22.6065 16.4688 21.7217C12.1657 18.2219 12.1955 11.6163 16.4688 8.11536C15.13 7.22778 13.5596 6.7537 11.9532 6.75217C7.44396 6.74686 3.77834 10.4114 3.77834 14.91ZM17.0001 21.3329C21.1619 18.0859 21.1438 11.7587 17.0001 8.49467C12.8563 11.7587 12.8383 18.0922 17.0001 21.3329ZM8.59996 25.8368C8.59996 25.3236 8.26315 24.9868 7.7319 24.9687C7.4599 24.9687 7.1709 25.0516 6.97646 25.3523C6.83515 25.11 6.5929 24.9687 6.25609 24.9687C6.1337 24.9669 6.0127 24.9949 5.90364 25.0505C5.79457 25.106 5.70072 25.1874 5.63027 25.2875V25.0282H5.14684V27.1947H5.63027C5.63027 26.079 5.48259 25.4118 6.16152 25.4118C6.76396 25.4118 6.64602 26.0142 6.64602 27.1947H7.11246C7.11246 26.1141 6.96477 25.4118 7.64371 25.4118C8.24615 25.4118 8.12715 26.0025 8.12715 27.1947H8.61165V25.8368H8.59996ZM11.2509 25.0282H10.7845V25.2875C10.7019 25.1845 10.5965 25.1021 10.4767 25.0468C10.3568 24.9915 10.2258 24.9647 10.0938 24.9687C9.48609 24.9687 9.01965 25.4532 9.01965 26.1077C9.01965 26.7686 9.48609 27.2467 10.0938 27.2467C10.4009 27.2467 10.6251 27.1341 10.7845 26.928V27.2H11.2509V25.0282ZM13.6415 26.5391C13.6415 25.654 12.29 26.0546 12.29 25.6413C12.29 25.3045 12.9923 25.3587 13.3823 25.5765L13.5767 25.1929C13.0221 24.8327 11.7938 24.8391 11.7938 25.6774C11.7938 26.521 13.1453 26.1672 13.1453 26.5625C13.1453 26.9344 12.3485 26.9046 11.9235 26.6092L11.7173 26.9811C12.3782 27.4295 13.6415 27.3349 13.6415 26.538V26.5391ZM15.7315 27.0874L15.6018 26.6857C15.3776 26.809 14.8815 26.945 14.8815 26.4435V25.4639H15.655V25.0272H14.8815V24.3663H14.397V25.0272H13.9486V25.4585H14.397V26.4445C14.397 27.4837 15.418 27.2945 15.7315 27.0874ZM16.5156 26.2969H18.1391C18.1391 25.3406 17.7024 24.9624 17.1116 24.9624C16.4858 24.9624 16.0375 25.4288 16.0375 26.1014C16.0375 27.3115 17.372 27.5124 18.0328 26.9397L17.8086 26.5859C17.3486 26.9641 16.6516 26.928 16.5156 26.2969ZM20.0048 25.0282C19.7339 24.9103 19.3206 24.922 19.1081 25.2875V25.0282H18.6236V27.1947H19.1081V25.9728C19.1081 25.2875 19.6691 25.3767 19.8635 25.4766L20.0048 25.0282ZM20.6306 26.1077C20.6306 25.4341 21.316 25.2163 21.8525 25.6115L22.0767 25.228C21.3914 24.6914 20.1461 24.9857 20.1461 26.113C20.1461 27.2818 21.4679 27.5177 22.0767 26.9981L21.8525 26.6145C21.3096 26.9981 20.6306 26.7686 20.6306 26.1067V26.1077ZM24.5672 25.0282H24.0827V25.2875C23.5929 24.6383 22.3179 25.0049 22.3179 26.1077C22.3179 27.2414 23.6396 27.5655 24.0827 26.928V27.2H24.5672V25.0282ZM26.5562 25.0282C26.4149 24.957 25.907 24.8572 25.6595 25.2875V25.0282H25.193V27.1947H25.6595V25.9728C25.6595 25.3236 26.1907 25.365 26.4149 25.4766L26.5562 25.0282ZM28.9351 24.1485H28.4687V25.2875C27.9842 24.6447 26.7039 24.9868 26.7039 26.1077C26.7039 27.2531 28.032 27.5591 28.4687 26.928V27.2H28.9351V24.1485ZM29.3846 19.7157V19.9877H29.4313V19.7157H29.5429V19.669H29.2709V19.7157H29.3846ZM29.7735 27.0225C29.7735 26.9928 29.7735 26.9577 29.7565 26.928C29.7384 26.9099 29.7267 26.8812 29.7097 26.8632C29.6927 26.8451 29.663 26.8334 29.6449 26.8164C29.6151 26.8164 29.5801 26.7984 29.5503 26.7984C29.5323 26.7984 29.5036 26.8164 29.4675 26.8164C29.4442 26.8295 29.4224 26.8452 29.4026 26.8632C29.3729 26.8802 29.3559 26.9099 29.3559 26.928C29.3378 26.9577 29.3378 26.9928 29.3378 27.0225C29.3378 27.0406 29.3378 27.0693 29.3559 27.1054C29.3559 27.1235 29.374 27.1522 29.4026 27.1702C29.4206 27.1904 29.4427 27.2063 29.4675 27.217C29.4972 27.234 29.5323 27.234 29.5503 27.234C29.5801 27.234 29.6151 27.234 29.6449 27.217C29.663 27.1989 29.6916 27.1872 29.7097 27.1702C29.7278 27.1532 29.7395 27.1235 29.7565 27.1054C29.7735 27.0704 29.7735 27.0406 29.7735 27.0225ZM29.9626 19.6626H29.8797L29.7851 19.8687L29.6906 19.6626H29.6077V19.9814H29.6545V19.7391L29.749 19.9452H29.8138L29.8967 19.7391V19.9814H29.9615L29.9626 19.6626ZM30.2218 14.91C30.2218 10.4114 26.5562 6.74686 22.047 6.74686C20.441 6.75088 18.8713 7.22475 17.5313 8.11004C21.7877 11.611 21.8525 18.2335 17.5313 21.7164C18.8709 22.6025 20.4409 23.0764 22.047 23.0796C26.5562 23.086 30.2218 19.4257 30.2218 14.91Z" fill="white"/>
</g>
<defs>
<clipPath id="clip0">
<rect width="34" height="34" fill="white"/>
</clipPath>
</defs>
</svg>
