<svg width="50" height="50" viewBox="0 0 50 50" fill="none" xmlns="http://www.w3.org/2000/svg">
<path d="M36.3438 17.9609C35.1801 17.5403 33.9514 17.3282 32.7141 17.3344C28.7188 17.3344 25.8953 19.3531 25.8781 22.2422C25.8453 24.3656 27.8797 25.5625 29.4172 26.2781C30.9969 27.0109 31.525 27.4672 31.5172 28.1172C31.5094 29.1187 30.2547 29.5656 29.1 29.5656C27.4953 29.5656 26.625 29.3469 25.2828 28.7844L24.7844 28.5484L24.2156 31.8859C25.1922 32.2844 26.9422 32.6344 28.7484 32.6672C33.0047 32.6672 35.7797 30.6656 35.8109 27.5797C35.8438 25.8875 34.7547 24.6031 32.4344 23.5437C31.0344 22.8609 30.1578 22.3953 30.1578 21.6953C30.1578 21.0765 30.9063 20.4265 32.4688 20.4265C33.5057 20.4006 34.5366 20.5916 35.4953 20.9875L35.8781 21.1578L36.4391 17.9437L36.3438 17.9609ZM46.7297 17.6109H43.6047C42.6281 17.6109 41.9031 17.8719 41.4719 18.8406L35.4656 32.4547H39.7141L40.5703 30.225L45.7531 30.2328C45.8828 30.7531 46.2484 32.4531 46.2484 32.4531H50L46.7297 17.6109ZM20.125 17.489H24.1703L21.6391 32.339H17.5938L20.125 17.4812V17.489ZM9.83906 25.6672L10.2531 27.7344L14.2156 17.6109H18.5047L12.1234 32.4297H7.85313L4.35313 19.8812C4.32631 19.777 4.27854 19.6793 4.21272 19.5942C4.1469 19.509 4.06442 19.4381 3.97031 19.3859C2.7131 18.732 1.37942 18.2371 0 17.9125L0.0484375 17.6015H6.575C7.45469 17.6344 8.17031 17.9125 8.41406 18.8562L9.83906 25.675V25.6672ZM41.7234 27.189L43.3438 23.0312C43.3187 23.0703 43.6766 22.1765 43.8797 21.614L44.1562 22.8906L45.0938 27.1797H41.7234V27.189Z" fill="white"/>
</svg>
