<svg width="87" height="29" viewBox="0 0 150 50" fill="none" xmlns="http://www.w3.org/2000/svg">
<defs><style>.cls-1{fill:#fff;}</style></defs><path class="cls-1" d="M76.16,15.1c.4-.32.77-.6,1.16-.87A6.45,6.45,0,0,1,81.67,13a5.46,5.46,0,0,1,4.16,2.37,5.06,5.06,0,0,1,.82,2.32,14.29,14.29,0,0,1,.09,2q0,4.89,0,9.78c0,.22-.06.27-.28.27-1.22,0-2.45,0-3.68,0-.19,0-.25,0-.25-.25q0-4,0-8a12.55,12.55,0,0,0-.21-2.52,2.5,2.5,0,0,0-2.94-2.09,3.36,3.36,0,0,0-2.86,2.51,8.17,8.17,0,0,0-.33,2.82c0,2.43,0,4.86,0,7.29,0,.22-.06.26-.26.26-1.24,0-2.47,0-3.7,0-.18,0-.23,0-.23-.23V13.58c0-.19.06-.22.23-.22h3.72c.19,0,.25.05.24.24C76.15,14.09,76.16,14.57,76.16,15.1Z"/><path class="cls-1" d="M127.69,35.71c.15-.33.3-.65.44-1L131,28.58a.46.46,0,0,0,0-.41l-6-14.52c-.12-.29-.12-.29.19-.29h3.54c.22,0,.3.07.38.26q2,4.86,4,9.71a2.72,2.72,0,0,0,.11.25c.1-.07.11-.17.15-.26q2.24-4.84,4.44-9.71a.38.38,0,0,1,.41-.25h3.66c.21,0,.23,0,.14.23q-3.19,7-6.38,13.93c-1.08,2.36-2.15,4.72-3.23,7.07,0,.12-.1.21-.25.22a13.81,13.81,0,0,0-4.12.85l-.24.07Z"/><path class="cls-1" d="M123.89,41.67V44.4c0,.12,0,.17-.16.17-.49,0-.49,0-.49-.46,0-1.07,0-2.15,0-3.22,0-.18,0-.23.23-.22s.55-.07.71,0,.19.43.27.66l.75,2.12c0,.06,0,.14.11.2.22-.64.44-1.28.65-1.91.11-.31.23-.63.33-1a.18.18,0,0,1,.22-.16h.61c.15,0,.18,0,.18.18q0,1.77,0,3.54c0,.14,0,.18-.18.18-.47,0-.47,0-.47-.47V41.64h0l-.15.39c-.28.78-.57,1.56-.83,2.34-.08.25-.24.2-.41.21s-.26,0-.32-.22c-.29-.84-.6-1.67-.9-2.51l-.07-.18Z"/><path class="cls-1" d="M113.25,44.45c-.3.09-.46-.1-.62-.4-.43-.87-.9-1.73-1.35-2.59,0-.08-.06-.22-.18-.21s-.13.14-.17.22c-.49.93-1,1.86-1.46,2.79a.3.3,0,0,1-.32.19,4.17,4.17,0,0,0-.5,0c-.21,0-.22-.05-.13-.22l1.65-3.08.8-1.51c0-.06,0-.16.14-.15s.1.08.13.14c.82,1.54,1.65,3.07,2.47,4.6.1.18.06.23-.13.22S113.4,44.45,113.25,44.45Z"/><path class="cls-1" d="M104.61,40.22c.29-.1.45.08.6.38.44.89.92,1.77,1.38,2.65,0,.06,0,.16.14.16s.12-.1.16-.17l1.5-2.84c.07-.13.14-.2.29-.19a4.69,4.69,0,0,0,.53,0c.24,0,.24,0,.13.22l-1.79,3.34L106.87,45c0,.06-.05.15-.13.14s-.09-.08-.12-.13c-.82-1.54-1.64-3.09-2.47-4.63-.08-.16-.06-.22.13-.2Z"/><path class="cls-1" d="M137.48,43.47c0-.85,0-1.7,0-2.55,0-.22.07-.26.27-.25.39,0,.39,0,.39.4v3.28c0,.17,0,.21-.21.23a.69.69,0,0,1-.78-.43c-.43-.76-.91-1.48-1.36-2.22,0-.06-.06-.14-.16-.18V42c0,.8,0,1.59,0,2.39,0,.14,0,.2-.19.2-.47,0-.47,0-.47-.46,0-1.08,0-2.16,0-3.24,0-.16,0-.19.2-.21a.74.74,0,0,1,.82.46c.46.8,1,1.58,1.45,2.36Z"/><path class="cls-1" d="M116.79,44.66a1.88,1.88,0,0,1-1.85-2,2,2,0,0,1,1-1.87,1.77,1.77,0,0,1,2.42.74c.15.39.15.37-.27.39a.37.37,0,0,1-.44-.28.8.8,0,0,0-.79-.49,1,1,0,0,0-1,.49,1.88,1.88,0,0,0,0,2,1,1,0,0,0,1.09.46.89.89,0,0,0,.76-.75c0-.23.15-.26.34-.25.43,0,.43,0,.31.41A1.59,1.59,0,0,1,116.79,44.66Z"/><path class="cls-1" d="M138.53,40.67h.66c.11,0,.14.07.18.14l.81,1.38a.48.48,0,0,0,.15.2l.91-1.55a.26.26,0,0,1,.28-.17h.55a.35.35,0,0,1-.1.21c-.39.64-.77,1.28-1.17,1.91a.9.9,0,0,0-.16.57c0,.35,0,.69,0,1,0,.14,0,.18-.18.18-.5,0-.54,0-.5-.49a2.62,2.62,0,0,0-.54-1.93,14.81,14.81,0,0,1-.79-1.26A.35.35,0,0,1,138.53,40.67Z"/><path class="cls-1" d="M52.09,18.93a7.74,7.74,0,0,0-3.55-4.85,7.17,7.17,0,0,0-5.46-.89,6.73,6.73,0,0,0-2.83,1.37c-.25.19-.49.41-.77.64,0-.56,0-1.07,0-1.57,0-.2,0-.27-.26-.27H35.55c-.2,0-.26,0-.26.26V35.69a.34.34,0,0,0,0,.22c.06,0,.1,0,.14-.06a8.72,8.72,0,0,1,3.81-1.37c.19,0,.22-.09.22-.26q0-3,0-6v-.28l.47.41a8,8,0,0,0,1.48,1A6.78,6.78,0,0,0,46,30a7.73,7.73,0,0,0,5.56-4.39A9.27,9.27,0,0,0,52.09,18.93Zm-5.7,6.5a4.3,4.3,0,0,1-3.38.78,4.37,4.37,0,0,1-3.66-4,5.32,5.32,0,0,1,.4-2.9,4.18,4.18,0,0,1,3.35-2.46,4.38,4.38,0,0,1,5.07,3.76c0,.3,0,.59.06.82A4.67,4.67,0,0,1,46.39,25.43Z"/><path class="cls-1" d="M105.07,17.55a8.06,8.06,0,0,0-2.78-3.29,7.33,7.33,0,0,0-8.35.11c-.34.25-.64.53-1,.83V13.67c0-.33,0-.31-.3-.31H89c-.23,0-.27.06-.27.28V35.87a.23.23,0,0,0,.18-.07,8.69,8.69,0,0,1,3.78-1.32c.2,0,.25-.08.24-.27v-6A.54.54,0,0,1,93,28a.51.51,0,0,1,.21.17A6.93,6.93,0,0,0,96.92,30a7.07,7.07,0,0,0,4.77-.88,8.2,8.2,0,0,0,4.07-6A9.75,9.75,0,0,0,105.07,17.55Zm-4.8,7.52a4.43,4.43,0,0,1-7.28-2,5.06,5.06,0,0,1,.59-4.42,4.25,4.25,0,0,1,4.08-1.84,4.18,4.18,0,0,1,3.68,2.73,4.74,4.74,0,0,1,.35,1.94A4.73,4.73,0,0,1,100.27,25.07Z"/><path class="cls-1" d="M123.74,13.36H120c-.19,0-.22.07-.22.24,0,.51,0,1,0,1.6l-.3-.26a6.93,6.93,0,0,0-3.79-1.85,7.67,7.67,0,0,0-3.62.34,7.32,7.32,0,0,0-2.94,2,7.84,7.84,0,0,0-1.8,3,10.61,10.61,0,0,0-.4,4.48,8,8,0,0,0,.87,2.84,8.36,8.36,0,0,0,3.08,3.3,7.27,7.27,0,0,0,5.25.93,6.84,6.84,0,0,0,3.29-1.69,1.5,1.5,0,0,1,.36-.28c0,.52,0,1,0,1.51,0,.17,0,.24.22.24,1.26,0,2.51,0,3.77,0,.18,0,.21-.07.21-.23V13.58C124,13.42,123.92,13.36,123.74,13.36Zm-4.67,11.1a4.3,4.3,0,0,1-4,1.8,4.43,4.43,0,0,1-4-4.05,5.15,5.15,0,0,1,.58-3.2,4.28,4.28,0,0,1,4.26-2.17,4.22,4.22,0,0,1,3.27,1.9,4.68,4.68,0,0,1,.77,2.79A4.85,4.85,0,0,1,119.07,24.46Z"/><path class="cls-1" d="M70.66,22.2A9.62,9.62,0,0,0,69.42,17a8,8,0,0,0-4-3.41,9.62,9.62,0,0,0-5.12-.47,8,8,0,0,0-5.53,3.64,8.86,8.86,0,0,0-1.2,6.66,7.72,7.72,0,0,0,2.22,4.16,8,8,0,0,0,3.84,2.18,11.43,11.43,0,0,0,4.55.14,8.07,8.07,0,0,0,5.33-3.18c.09-.12.09-.16,0-.23l-3.23-1.43a.23.23,0,0,0-.28,0,5.32,5.32,0,0,1-.85.65,6,6,0,0,1-3.74.82,4.4,4.4,0,0,1-4.08-3.52c-.06-.26-.06-.26.2-.26H70c.21,0,.47.09.59,0S70.66,22.39,70.66,22.2Zm-4.41-2.64H57.6c-.18,0-.24,0-.14-.2a8.7,8.7,0,0,1,.79-1.27,4.42,4.42,0,0,1,3-1.57,5,5,0,0,1,3.24.57,4.23,4.23,0,0,1,2,2.25C66.47,19.51,66.45,19.56,66.25,19.56Z"/><path class="cls-1" d="M98.29,42.49l.12-.12a1.21,1.21,0,0,0-.16-1.89,1.7,1.7,0,0,0-.93-.26H95c-.17,0-.22.07-.22.23,0,.42,0,.85,0,1.28v3.22c0,.13,0,.26.2.25a25.84,25.84,0,0,0,2.64,0,1.41,1.41,0,0,0,.66-2.65Zm-2.67-1.35c0-.15,0-.23.21-.22.46,0,.93,0,1.39,0s.81.35.74.8a.53.53,0,0,1-.51.46,5.2,5.2,0,0,1-.87,0h-.75c-.15,0-.22,0-.21-.21S95.62,41.43,95.62,41.14Zm2.56,2.65c0,.4-.24.59-.66.63s-1.11,0-1.67,0c-.16,0-.24-.05-.23-.22,0-.36,0-.72,0-1.07,0-.17.06-.21.22-.21h.85a5.84,5.84,0,0,1,.92,0A.66.66,0,0,1,98.18,43.79Z"/><path class="cls-1" d="M104,43.2a1.16,1.16,0,0,0-.67-.7l.11-.1a1.2,1.2,0,0,0,.12-1.71,1.49,1.49,0,0,0-1.17-.47c-.78,0-1.56,0-2.33,0-.15,0-.21,0-.2.2V45c0,.15.05.21.2.2.87,0,1.75.05,2.62,0A1.42,1.42,0,0,0,104,43.2Zm-3.32-2.09c0-.12,0-.19.17-.19.53,0,1.06,0,1.59,0a.63.63,0,0,1,.59.69.54.54,0,0,1-.5.55,5.35,5.35,0,0,1-.88,0h-.78c-.14,0-.19-.05-.19-.19C100.65,41.72,100.64,41.42,100.64,41.11Zm2,3.31a17.62,17.62,0,0,1-1.78,0,.16.16,0,0,1-.18-.18V43.12c0-.13.06-.17.18-.17h.88a5.84,5.84,0,0,1,.92,0,.66.66,0,0,1,.59.76A.62.62,0,0,1,102.6,44.42Z"/><path class="cls-1" d="M122.34,41.5a1.83,1.83,0,0,0-3-.19,2.36,2.36,0,0,0-.38,1.67,1.84,1.84,0,0,0,1.85,1.68,1.73,1.73,0,0,0,1.19-.43A2.29,2.29,0,0,0,122.34,41.5Zm-.63,2a1,1,0,0,1-.94.55,1,1,0,0,1-1-.53,1.94,1.94,0,0,1,0-1.8,1,1,0,0,1,1-.63,1.06,1.06,0,0,1,1,.72,1.91,1.91,0,0,1,.14.68A2,2,0,0,1,121.71,43.55Z"/><path class="cls-1" d="M130.56,40.82a1.68,1.68,0,0,0-.73-.15h-1.55c-.14,0-.18,0-.18.18,0,.58,0,1.17,0,1.75v1.46c0,.52,0,.52.5.51.14,0,.19,0,.18-.18,0-.38,0-.76,0-1.14,0-.14,0-.18.18-.17a10.85,10.85,0,0,0,1.14,0,1.08,1.08,0,0,0,1-.84A1.18,1.18,0,0,0,130.56,40.82Zm-.63,1.67c-.34,0-.68,0-1,0-.09,0-.11,0-.11-.12v-.52h0c0-.21-.08-.48,0-.6s.4,0,.61,0a3.13,3.13,0,0,1,.53,0,.55.55,0,0,1,.52.62A.58.58,0,0,1,129.93,42.49Z"/><path class="cls-1" d="M134.54,44.34c-.44-1.12-.88-2.23-1.29-3.36-.1-.24-.2-.38-.43-.31-.43,0-.43,0-.56.36-.4,1-.79,2-1.18,3.06-.19.49-.19.48.34.48.14,0,.21,0,.25-.17s.16-.47.24-.71a.18.18,0,0,1,.21-.15h.82c.59,0,.59,0,.78.57s.17.45.65.46C134.58,44.58,134.62,44.54,134.54,44.34ZM132.9,43c-.2,0-.4,0-.6,0s-.14,0-.1-.15c.18-.49.36-1,.55-1.55.16.45.3.86.44,1.27S133.34,43,132.9,43Z"/><path class="cls-1" d="M92.64,44.35c-.44-1.12-.88-2.23-1.29-3.36-.1-.25-.21-.39-.45-.32-.41,0-.41,0-.54.35-.4,1-.79,2-1.18,3.06-.19.51-.19.5.35.5a.21.21,0,0,0,.23-.17c.08-.24.18-.48.25-.73a.18.18,0,0,1,.2-.14H91c.2,0,.45-.08.6,0s.15.35.21.54c.17.46.17.45.66.46C92.68,44.58,92.71,44.53,92.64,44.35ZM91.32,43H90.25l.6-1.7c.2.58.37,1.08.55,1.59C91.43,43,91.41,43,91.32,43Z"/><path class="cls-1" d="M34.07,15.17a12.66,12.66,0,0,0-5.24-7.94A13,13,0,0,0,21.88,4.8H20.46a13.12,13.12,0,0,0-9.24,4.54A12.75,12.75,0,0,0,8.65,22.13a13.13,13.13,0,0,0,14.42,8.94A12.61,12.61,0,0,0,29.8,28,12.87,12.87,0,0,0,34.07,15.17Zm-5.29,2.47a7.71,7.71,0,0,1-2.08,5.08,8.15,8.15,0,0,1-7.44,2.58,8.12,8.12,0,0,1-5.39-3.47s0-.08-.07-.12h0a6.28,6.28,0,0,1-.79-1.6h0a2.34,2.34,0,0,1-.19-.5h0l-.07-.23a4,4,0,0,1-.14-.69h0l-.07-.4h0a2.34,2.34,0,0,1,0-.59.25.25,0,0,1,0-.12,2.21,2.21,0,0,1,0-.77V16.5a.29.29,0,0,1,0-.24,1.76,1.76,0,0,1,.07-.56.19.19,0,0,1,0-.07,6.33,6.33,0,0,1,.5-1.6A7.7,7.7,0,0,1,15,11.34a7.28,7.28,0,0,1,2.28-1.52h0A6.31,6.31,0,0,1,19,9.27h0a2,2,0,0,1,.59-.09h0a1.2,1.2,0,0,1,.5,0h0a1,1,0,0,1,.42,0h8.11c.15,0,.18.06.18.19v1.28C28.8,12.92,28.83,15.28,28.78,17.64Z"/><polygon class="cls-1" points="12.52 17.41 12.52 17.41 12.52 17.42 12.52 17.41 12.52 17.41 12.52 17.41"/></svg>