<svg width="87" height="34" viewBox="0 0 150 50" fill="none" xmlns="http://www.w3.org/2000/svg" >
<defs><style>.cls-1{fill:#fff;}.cls-1,.cls-2{fill-rule:evenodd;}.cls-2{fill:#e6e6e6;}</style></defs>
<path class="cls-1" d="M19.35,16.36h9.21c4.95,0,6.81,2.5,6.52,6.19-.47,6.07-4.14,9.42-9,9.42H23.6c-.67,0-1.11.44-1.29,1.64l-1.06,7c-.07.45-.31.72-.67.75H14.81c-.55,0-.74-.42-.6-1.32l3.54-22.34A1.39,1.39,0,0,1,19.35,16.36Z"/>
<path class="cls-1" d="M59.34,15.94c3.11,0,6,1.69,5.59,5.9-.47,5-3.15,7.76-7.38,7.77H53.87c-.53,0-.79.43-.92,1.32l-.72,4.53c-.1.69-.45,1-1,1H47.82c-.54,0-.73-.35-.61-1.13L50,17.17c.14-.89.48-1.22,1.09-1.22Zm-5.58,9.74h2.79c1.75-.07,2.91-1.28,3-3.47a2.11,2.11,0,0,0-2.29-2.3H54.66Zm20.5,9.41c.31-.29.63-.43.59-.08l-.11.84c-.06.44.11.67.52.67h3c.51,0,.76-.2.89-1l1.88-11.78c.09-.59,0-.88-.5-.88H77.23c-.3,0-.45.16-.53.63l-.12.72c-.07.38-.24.45-.4.07-.57-1.35-2-2-4.06-1.91-4.7.09-7.87,3.66-8.21,8.25a5.67,5.67,0,0,0,5.62,6.32,6.06,6.06,0,0,0,4.73-1.84Zm-2.55-1.81a3.07,3.07,0,0,1-3.14-3.6,4.37,4.37,0,0,1,4.21-3.59,3.06,3.06,0,0,1,3.14,3.59A4.39,4.39,0,0,1,71.71,33.28ZM87.05,22.81H84c-.64,0-.9.47-.69,1.06l3.84,11.24-3.79,5.35c-.31.44-.07.85.37.85h3.48a1.06,1.06,0,0,0,1-.5L100,23.87c.36-.52.19-1.07-.41-1.07H96.33c-.57,0-.79.23-1.12.7l-4.92,7.14L88.1,23.48A1,1,0,0,0,87.05,22.81Z"/>
<path class="cls-1" d="M112.3,15.94c3.11,0,6,1.69,5.59,5.9-.47,5-3.15,7.76-7.38,7.77h-3.68c-.53,0-.79.43-.93,1.32l-.71,4.53c-.11.69-.46,1-1,1h-3.43c-.55,0-.74-.35-.62-1.13L103,17.17c.14-.89.48-1.22,1.09-1.22Zm-5.59,9.74h2.8c1.75-.07,2.91-1.28,3-3.47a2.11,2.11,0,0,0-2.29-2.3h-2.63Zm20.51,9.41c.31-.29.63-.43.58-.08l-.11.84c-.06.44.12.67.53.67h3.05c.5,0,.76-.2.89-1L134,23.73c.09-.59,0-.88-.51-.88h-3.35c-.3,0-.45.16-.53.63l-.12.72c-.07.38-.24.45-.4.07-.57-1.35-2-2-4-1.91-4.71.09-7.88,3.66-8.22,8.25a5.68,5.68,0,0,0,5.62,6.32,6,6,0,0,0,4.73-1.84Zm-2.56-1.81a3.07,3.07,0,0,1-3.14-3.6,4.37,4.37,0,0,1,4.21-3.59,3.06,3.06,0,0,1,3.14,3.59,4.39,4.39,0,0,1-4.21,3.6Zm14.06,3.27H135.2a.42.42,0,0,1-.43-.4v-.09l3.1-19.59a.61.61,0,0,1,.58-.49H142a.42.42,0,0,1,.44.4.28.28,0,0,1,0,.09l-3.09,19.59a.62.62,0,0,1-.58.49Z"/>
<path class="cls-1" d="M13.59,8.67h9.22c2.6,0,5.68.09,7.74,1.9a6.26,6.26,0,0,1,1.94,5.22c-.57,7.05-4.78,11-10.43,11H17.51c-.77,0-1.28.51-1.5,1.9l-1.27,8.08c-.08.53-.31.84-.73.87H8.33c-.63,0-.85-.48-.69-1.52L11.73,10.2A1.63,1.63,0,0,1,13.59,8.67Z"/>
<path class="cls-2" d="M16.13,27.87l1.61-10.19a1.41,1.41,0,0,1,1.61-1.32h9.21a8.94,8.94,0,0,1,3.72.67c-.92,6.27-5,9.75-10.29,9.75H17.45A1.35,1.35,0,0,0,16.13,27.87Z"/>
</svg>
